<svg width="243" height="147" viewBox="0 0 243 147" fill="none" xmlns="http://www.w3.org/2000/svg">
<path d="M62.0156 145.66C71.3906 145.66 76.7617 141.656 80.2773 131.988L122.66 19.5859C123.539 17.2422 124.027 14.9961 124.027 12.75C124.027 6.10938 118.754 1.42188 111.137 1.42188C104.594 1.42188 100.98 4.15625 98.832 10.7969L62.6992 116.949H62.1133L25.8828 10.9922C23.832 4.35156 19.8281 1.42188 13.2852 1.42188C5.47266 1.42188 0.199219 6.10938 0.199219 13.043C0.199219 15.2891 0.589844 17.6328 1.56641 20.0742L43.6562 131.891C47.2695 141.656 52.6406 145.66 62.0156 145.66ZM187.895 146.344C221.781 146.344 242.973 129.352 242.973 102.398C242.973 81.5 230.473 69.5859 200.785 63.4336L185.648 60.3086C168.07 56.5977 161.039 50.4453 161.039 40.875C161.039 29.0586 172.172 21.6367 187.797 21.6367C200.98 21.6367 211.039 26.7148 215.824 38.6289C218.461 44.0977 222.074 46.6367 227.934 46.6367C234.477 46.6367 238.871 42.4375 238.871 36.2852C238.871 33.9414 238.578 32.0859 237.992 30.5234C232.23 11.8711 212.895 0.738281 187.992 0.738281C157.426 0.738281 135.648 17.5352 135.648 42.3398C135.648 62.9453 148.832 76.2266 177.055 81.9883L192.191 85.1133C210.551 88.9219 217.582 95.1719 217.582 105.328C217.582 117.047 205.668 125.445 188.676 125.445C173.637 125.445 161.527 119.977 157.133 107.77C154.398 102.105 150.883 99.8594 145.316 99.8594C138.676 99.8594 134.184 104.352 134.184 111.383C134.184 113.727 134.672 116.266 135.551 118.609C141.02 134.625 159.77 146.344 187.895 146.344Z" fill="#878787"/>
</svg>
