<svg width="131" height="76" viewBox="0 0 131 76" fill="none" xmlns="http://www.w3.org/2000/svg">
<path d="M14.9033 1.2727H0.450195L26.0539 74H42.3181L67.9573 1.2727H53.4687L34.5766 58.517H33.8309L14.9033 1.2727Z" fill="url(#paint0_linear)"/>
<path d="M117.061 21.2656H129.738C129.49 8.97867 119.014 0.278381 103.531 0.278381C88.2609 0.278381 76.7908 8.87213 76.8263 21.7272C76.8263 32.1676 84.2481 38.169 96.2155 41.2585L104.49 43.3892C112.338 45.3778 117.522 47.8281 117.558 53.4744C117.522 59.6889 111.627 63.8437 103.034 63.8437C94.795 63.8437 88.403 60.1505 87.8703 52.5156H74.9086C75.4413 66.9687 86.2013 75.1008 103.14 75.1008C120.576 75.1008 130.697 66.4005 130.733 53.5809C130.697 40.9744 120.292 35.2216 109.355 32.6292L102.536 30.9247C96.5706 29.5042 90.1075 26.9829 90.1785 20.9105C90.214 15.4417 95.1146 11.429 103.353 11.429C111.201 11.429 116.386 15.0866 117.061 21.2656Z" fill="url(#paint1_linear)"/>
<defs>
<linearGradient id="paint0_linear" x1="65.5914" y1="0.278381" x2="65.5914" y2="75.1008" gradientUnits="userSpaceOnUse">
<stop stop-color="#141259"/>
<stop offset="1" stop-color="#1E5384"/>
</linearGradient>
<linearGradient id="paint1_linear" x1="65.5914" y1="0.278381" x2="65.5914" y2="75.1008" gradientUnits="userSpaceOnUse">
<stop stop-color="#141259"/>
<stop offset="1" stop-color="#1E5384"/>
</linearGradient>
</defs>
</svg>
