<svg width="127" height="74" viewBox="0 0 127 74" fill="none" xmlns="http://www.w3.org/2000/svg">
<path d="M31.0078 72.8301C35.6953 72.8301 38.3809 70.8281 40.1387 65.9941L61.3301 9.79297C61.7695 8.62109 62.0137 7.49805 62.0137 6.375C62.0137 3.05469 59.377 0.710938 55.5684 0.710938C52.2969 0.710938 50.4902 2.07812 49.416 5.39844L31.3496 58.4746H31.0566L12.9414 5.49609C11.916 2.17578 9.91406 0.710938 6.64258 0.710938C2.73633 0.710938 0.0996094 3.05469 0.0996094 6.52148C0.0996094 7.64453 0.294922 8.81641 0.783203 10.0371L21.8281 65.9453C23.6348 70.8281 26.3203 72.8301 31.0078 72.8301Z" fill="url(#paint0_linear)"/>
<path d="M98.9473 73.1719C115.891 73.1719 126.486 64.6758 126.486 51.1992C126.486 40.75 120.236 34.793 105.393 31.7168L97.8242 30.1543C89.0352 28.2988 85.5195 25.2227 85.5195 20.4375C85.5195 14.5293 91.0859 10.8184 98.8984 10.8184C105.49 10.8184 110.52 13.3574 112.912 19.3145C114.23 22.0488 116.037 23.3184 118.967 23.3184C122.238 23.3184 124.436 21.2188 124.436 18.1426C124.436 16.9707 124.289 16.043 123.996 15.2617C121.115 5.93555 111.447 0.369141 98.9961 0.369141C83.7129 0.369141 72.8242 8.76758 72.8242 21.1699C72.8242 31.4727 79.416 38.1133 93.5273 40.9941L101.096 42.5566C110.275 44.4609 113.791 47.5859 113.791 52.6641C113.791 58.5234 107.834 62.7227 99.3379 62.7227C91.8184 62.7227 85.7637 59.9883 83.5664 53.8848C82.1992 51.0527 80.4414 49.9297 77.6582 49.9297C74.3379 49.9297 72.0918 52.1758 72.0918 55.6914C72.0918 56.8633 72.3359 58.1328 72.7754 59.3047C75.5098 67.3125 84.8848 73.1719 98.9473 73.1719Z" fill="url(#paint1_linear)"/>
<defs>
<linearGradient id="paint0_linear" x1="63.293" y1="0.369141" x2="63.293" y2="73.1719" gradientUnits="userSpaceOnUse">
<stop stop-color="#141259"/>
<stop offset="1" stop-color="#1E5384"/>
</linearGradient>
<linearGradient id="paint1_linear" x1="63.293" y1="0.369141" x2="63.293" y2="73.1719" gradientUnits="userSpaceOnUse">
<stop stop-color="#141259"/>
<stop offset="1" stop-color="#1E5384"/>
</linearGradient>
</defs>
</svg>
